<svg xmlns="http://www.w3.org/2000/svg" viewBox="0 0 64 64">
  <defs>
    <linearGradient id="kr-bg" x1="0" y1="0" x2="64" y2="64" gradientUnits="userSpaceOnUse">
      <stop offset="0" stop-color="#4F46E5"/>
      <stop offset="1" stop-color="#7C3AED"/>
    </linearGradient>
  </defs>
  <rect width="64" height="64" rx="14" fill="url(#kr-bg)"/>
  <g fill="#FFFFFF">
    <path d="M12 19 h6.5 v10.2 l9.4 -10.2 h7.6 l-11.4 12.3 11.9 13.7 h-7.9 l-9.6 -11.3 v11.3 h-6.5 z"/>
    <path fill-rule="evenodd" d="M36 19 h10.6 c4.6 0 7.3 2.5 7.3 6.6 0 3.3 -1.7 5.5 -4.4 6.3 L54.4 45 h-6.7 l-4 -11.1 h-1.5 V45 H36 z M41.6 24.3 v4.4 h4.6 c1.9 0 3 -0.9 3 -2.2 s-1.1 -2.2 -3 -2.2 z"/>
  </g>
</svg>
